<mxfile host="app.diagrams.net" modified="2021-06-25T16:12:03.420Z" agent="5.0 (Windows NT 6.1; Win64; x64) AppleWebKit/537.36 (KHTML, like Gecko) Chrome/91.0.4472.114 Safari/537.36" etag="6uiLI7rhV_GId3mHnO7s" version="14.8.1" type="github">
  <diagram id="C5RBs43oDa-KdzZeNtuy" name="Page-1">
    <mxGraphModel dx="1102" dy="582" grid="1" gridSize="10" guides="1" tooltips="1" connect="1" arrows="1" fold="1" page="1" pageScale="1" pageWidth="827" pageHeight="1169" math="0" shadow="0">
      <root>
        <mxCell id="WIyWlLk6GJQsqaUBKTNV-0" />
        <mxCell id="WIyWlLk6GJQsqaUBKTNV-1" parent="WIyWlLk6GJQsqaUBKTNV-0" />
        <mxCell id="cXs1U_Rg0kg3EcRgI-ar-0" value="Resume" style="swimlane;fontStyle=0;childLayout=stackLayout;horizontal=1;startSize=26;fillColor=none;horizontalStack=0;resizeParent=1;resizeParentMax=0;resizeLast=0;collapsible=1;marginBottom=0;" vertex="1" parent="WIyWlLk6GJQsqaUBKTNV-1">
          <mxGeometry x="340" y="90" width="140" height="78" as="geometry" />
        </mxCell>
        <mxCell id="cXs1U_Rg0kg3EcRgI-ar-3" value="RKONTACTS!!" style="text;strokeColor=none;fillColor=none;align=left;verticalAlign=top;spacingLeft=4;spacingRight=4;overflow=hidden;rotatable=0;points=[[0,0.5],[1,0.5]];portConstraint=eastwest;fontStyle=1" vertex="1" parent="cXs1U_Rg0kg3EcRgI-ar-0">
          <mxGeometry y="26" width="140" height="26" as="geometry" />
        </mxCell>
        <mxCell id="cXs1U_Rg0kg3EcRgI-ar-1" value="Map&lt;Section&gt; sections" style="text;strokeColor=none;fillColor=none;align=left;verticalAlign=top;spacingLeft=4;spacingRight=4;overflow=hidden;rotatable=0;points=[[0,0.5],[1,0.5]];portConstraint=eastwest;" vertex="1" parent="cXs1U_Rg0kg3EcRgI-ar-0">
          <mxGeometry y="52" width="140" height="26" as="geometry" />
        </mxCell>
        <mxCell id="cXs1U_Rg0kg3EcRgI-ar-19" style="edgeStyle=orthogonalEdgeStyle;rounded=0;orthogonalLoop=1;jettySize=auto;html=1;entryX=1;entryY=0.5;entryDx=0;entryDy=0;" edge="1" parent="WIyWlLk6GJQsqaUBKTNV-1" source="cXs1U_Rg0kg3EcRgI-ar-4" target="cXs1U_Rg0kg3EcRgI-ar-11">
          <mxGeometry relative="1" as="geometry" />
        </mxCell>
        <mxCell id="cXs1U_Rg0kg3EcRgI-ar-4" value="Section" style="swimlane;fontStyle=1;align=center;verticalAlign=top;childLayout=stackLayout;horizontal=1;startSize=26;horizontalStack=0;resizeParent=1;resizeParentMax=0;resizeLast=0;collapsible=1;marginBottom=0;" vertex="1" parent="WIyWlLk6GJQsqaUBKTNV-1">
          <mxGeometry x="330" y="220" width="160" height="86" as="geometry" />
        </mxCell>
        <mxCell id="cXs1U_Rg0kg3EcRgI-ar-5" value="SectionType heading" style="text;strokeColor=none;fillColor=none;align=left;verticalAlign=top;spacingLeft=4;spacingRight=4;overflow=hidden;rotatable=0;points=[[0,0.5],[1,0.5]];portConstraint=eastwest;" vertex="1" parent="cXs1U_Rg0kg3EcRgI-ar-4">
          <mxGeometry y="26" width="160" height="26" as="geometry" />
        </mxCell>
        <mxCell id="cXs1U_Rg0kg3EcRgI-ar-6" value="" style="line;strokeWidth=1;fillColor=none;align=left;verticalAlign=middle;spacingTop=-1;spacingLeft=3;spacingRight=3;rotatable=0;labelPosition=right;points=[];portConstraint=eastwest;" vertex="1" parent="cXs1U_Rg0kg3EcRgI-ar-4">
          <mxGeometry y="52" width="160" height="8" as="geometry" />
        </mxCell>
        <mxCell id="cXs1U_Rg0kg3EcRgI-ar-7" value="+ method(type): type" style="text;strokeColor=none;fillColor=none;align=left;verticalAlign=top;spacingLeft=4;spacingRight=4;overflow=hidden;rotatable=0;points=[[0,0.5],[1,0.5]];portConstraint=eastwest;" vertex="1" parent="cXs1U_Rg0kg3EcRgI-ar-4">
          <mxGeometry y="60" width="160" height="26" as="geometry" />
        </mxCell>
        <mxCell id="cXs1U_Rg0kg3EcRgI-ar-17" style="edgeStyle=orthogonalEdgeStyle;rounded=0;orthogonalLoop=1;jettySize=auto;html=1;" edge="1" parent="WIyWlLk6GJQsqaUBKTNV-1" source="cXs1U_Rg0kg3EcRgI-ar-9" target="cXs1U_Rg0kg3EcRgI-ar-4">
          <mxGeometry relative="1" as="geometry" />
        </mxCell>
        <mxCell id="cXs1U_Rg0kg3EcRgI-ar-9" value="&lt;p style=&quot;margin: 0px ; margin-top: 4px ; text-align: center&quot;&gt;&lt;br&gt;&lt;b&gt;ListSection&lt;/b&gt;&lt;/p&gt;&lt;hr&gt;&lt;span style=&quot;white-space: pre&quot;&gt;	&lt;/span&gt;List&amp;lt;String&amp;gt; lines" style="verticalAlign=top;align=left;overflow=fill;fontSize=12;fontFamily=Helvetica;html=1;" vertex="1" parent="WIyWlLk6GJQsqaUBKTNV-1">
          <mxGeometry x="340" y="410" width="140" height="60" as="geometry" />
        </mxCell>
        <mxCell id="cXs1U_Rg0kg3EcRgI-ar-16" style="edgeStyle=orthogonalEdgeStyle;rounded=0;orthogonalLoop=1;jettySize=auto;html=1;" edge="1" parent="WIyWlLk6GJQsqaUBKTNV-1" source="cXs1U_Rg0kg3EcRgI-ar-10" target="cXs1U_Rg0kg3EcRgI-ar-4">
          <mxGeometry relative="1" as="geometry" />
        </mxCell>
        <mxCell id="cXs1U_Rg0kg3EcRgI-ar-10" value="&lt;p style=&quot;margin: 0px ; margin-top: 4px ; text-align: center&quot;&gt;&lt;br&gt;&lt;b&gt;ArticleSection&lt;/b&gt;&lt;/p&gt;&lt;hr&gt;&lt;span style=&quot;white-space: pre&quot;&gt;	&lt;/span&gt;List&amp;lt;Article&amp;gt; articles" style="verticalAlign=top;align=left;overflow=fill;fontSize=12;fontFamily=Helvetica;html=1;" vertex="1" parent="WIyWlLk6GJQsqaUBKTNV-1">
          <mxGeometry x="20" y="360" width="140" height="60" as="geometry" />
        </mxCell>
        <mxCell id="cXs1U_Rg0kg3EcRgI-ar-11" value="&lt;p style=&quot;margin: 0px ; margin-top: 4px ; text-align: center&quot;&gt;&lt;br&gt;&lt;b&gt;enum SectionType&lt;/b&gt;&lt;/p&gt;" style="verticalAlign=top;align=left;overflow=fill;fontSize=12;fontFamily=Helvetica;html=1;" vertex="1" parent="WIyWlLk6GJQsqaUBKTNV-1">
          <mxGeometry x="160" y="233" width="140" height="60" as="geometry" />
        </mxCell>
        <mxCell id="cXs1U_Rg0kg3EcRgI-ar-18" style="edgeStyle=orthogonalEdgeStyle;rounded=0;orthogonalLoop=1;jettySize=auto;html=1;" edge="1" parent="WIyWlLk6GJQsqaUBKTNV-1" source="cXs1U_Rg0kg3EcRgI-ar-14" target="cXs1U_Rg0kg3EcRgI-ar-4">
          <mxGeometry relative="1" as="geometry" />
        </mxCell>
        <mxCell id="cXs1U_Rg0kg3EcRgI-ar-14" value="&lt;p style=&quot;margin: 0px ; margin-top: 4px ; text-align: center&quot;&gt;&lt;b&gt;TextSection&lt;/b&gt;&lt;/p&gt;&lt;hr&gt;&lt;span style=&quot;white-space: pre&quot;&gt;	&lt;/span&gt;String text" style="verticalAlign=top;align=left;overflow=fill;fontSize=12;fontFamily=Helvetica;html=1;strokeColor=#000000;direction=west;" vertex="1" parent="WIyWlLk6GJQsqaUBKTNV-1">
          <mxGeometry x="610" y="360" width="140" height="60" as="geometry" />
        </mxCell>
        <mxCell id="cXs1U_Rg0kg3EcRgI-ar-21" style="edgeStyle=orthogonalEdgeStyle;rounded=0;orthogonalLoop=1;jettySize=auto;html=1;exitX=0.5;exitY=1;exitDx=0;exitDy=0;entryX=1;entryY=0.25;entryDx=0;entryDy=0;" edge="1" parent="WIyWlLk6GJQsqaUBKTNV-1" source="cXs1U_Rg0kg3EcRgI-ar-20" target="cXs1U_Rg0kg3EcRgI-ar-0">
          <mxGeometry relative="1" as="geometry" />
        </mxCell>
        <mxCell id="cXs1U_Rg0kg3EcRgI-ar-20" value="&lt;p style=&quot;margin: 0px ; margin-top: 4px ; text-align: center&quot;&gt;&lt;b&gt;Contacts&lt;/b&gt;&lt;/p&gt;&lt;hr size=&quot;1&quot;&gt;&lt;div style=&quot;height: 2px&quot;&gt;&lt;span style=&quot;white-space: pre&quot;&gt;	&lt;/span&gt;!!!!!!!!!!!!&lt;br&gt;&lt;/div&gt;" style="verticalAlign=top;align=left;overflow=fill;fontSize=12;fontFamily=Helvetica;html=1;strokeColor=#000000;" vertex="1" parent="WIyWlLk6GJQsqaUBKTNV-1">
          <mxGeometry x="640" y="108" width="140" height="60" as="geometry" />
        </mxCell>
        <mxCell id="cXs1U_Rg0kg3EcRgI-ar-23" style="edgeStyle=orthogonalEdgeStyle;rounded=0;orthogonalLoop=1;jettySize=auto;html=1;exitX=0.5;exitY=1;exitDx=0;exitDy=0;entryX=0.5;entryY=0;entryDx=0;entryDy=0;" edge="1" parent="WIyWlLk6GJQsqaUBKTNV-1" source="cXs1U_Rg0kg3EcRgI-ar-22" target="cXs1U_Rg0kg3EcRgI-ar-10">
          <mxGeometry relative="1" as="geometry" />
        </mxCell>
        <mxCell id="cXs1U_Rg0kg3EcRgI-ar-22" value="&lt;p style=&quot;margin: 0px ; margin-top: 4px ; text-align: center&quot;&gt;&lt;b&gt;Article&lt;/b&gt;&lt;/p&gt;&lt;hr size=&quot;1&quot;&gt;&lt;div style=&quot;height: 2px&quot;&gt;&lt;/div&gt;" style="verticalAlign=top;align=left;overflow=fill;fontSize=12;fontFamily=Helvetica;html=1;strokeColor=#000000;" vertex="1" parent="WIyWlLk6GJQsqaUBKTNV-1">
          <mxGeometry x="20" y="160" width="140" height="60" as="geometry" />
        </mxCell>
        <mxCell id="cXs1U_Rg0kg3EcRgI-ar-32" style="edgeStyle=orthogonalEdgeStyle;rounded=0;orthogonalLoop=1;jettySize=auto;html=1;" edge="1" parent="WIyWlLk6GJQsqaUBKTNV-1" source="cXs1U_Rg0kg3EcRgI-ar-28" target="cXs1U_Rg0kg3EcRgI-ar-20">
          <mxGeometry relative="1" as="geometry" />
        </mxCell>
        <mxCell id="cXs1U_Rg0kg3EcRgI-ar-33" style="edgeStyle=orthogonalEdgeStyle;rounded=0;orthogonalLoop=1;jettySize=auto;html=1;" edge="1" parent="WIyWlLk6GJQsqaUBKTNV-1" source="cXs1U_Rg0kg3EcRgI-ar-28" target="cXs1U_Rg0kg3EcRgI-ar-22">
          <mxGeometry relative="1" as="geometry">
            <Array as="points">
              <mxPoint x="530" y="247" />
              <mxPoint x="530" y="190" />
            </Array>
          </mxGeometry>
        </mxCell>
        <mxCell id="cXs1U_Rg0kg3EcRgI-ar-28" value="Link" style="swimlane;fontStyle=0;childLayout=stackLayout;horizontal=1;startSize=26;fillColor=none;horizontalStack=0;resizeParent=1;resizeParentMax=0;resizeLast=0;collapsible=1;marginBottom=0;strokeColor=#000000;" vertex="1" parent="WIyWlLk6GJQsqaUBKTNV-1">
          <mxGeometry x="610" y="208" width="140" height="78" as="geometry" />
        </mxCell>
        <mxCell id="cXs1U_Rg0kg3EcRgI-ar-29" value="+ String name" style="text;strokeColor=none;fillColor=none;align=left;verticalAlign=top;spacingLeft=4;spacingRight=4;overflow=hidden;rotatable=0;points=[[0,0.5],[1,0.5]];portConstraint=eastwest;" vertex="1" parent="cXs1U_Rg0kg3EcRgI-ar-28">
          <mxGeometry y="26" width="140" height="26" as="geometry" />
        </mxCell>
        <mxCell id="cXs1U_Rg0kg3EcRgI-ar-30" value="+ String reference" style="text;strokeColor=none;fillColor=none;align=left;verticalAlign=top;spacingLeft=4;spacingRight=4;overflow=hidden;rotatable=0;points=[[0,0.5],[1,0.5]];portConstraint=eastwest;" vertex="1" parent="cXs1U_Rg0kg3EcRgI-ar-28">
          <mxGeometry y="52" width="140" height="26" as="geometry" />
        </mxCell>
      </root>
    </mxGraphModel>
  </diagram>
</mxfile>
